<?xml version="1.0" standalone="no"?>
<!DOCTYPE svg PUBLIC "-//W3C//DTD SVG 20010904//EN"
 "http://www.w3.org/TR/2001/REC-SVG-20010904/DTD/svg10.dtd">
<svg version="1.0" xmlns="http://www.w3.org/2000/svg"
 width="1280.000000pt" height="1048.000000pt" viewBox="0 0 1280.000000 1048.000000"
 preserveAspectRatio="xMidYMid meet">
<metadata>
Created by potrace 1.15, written by Peter Selinger 2001-2017
</metadata>
<g transform="translate(0.000000,1048.000000) scale(0.100000,-0.100000)"
fill="#009688" stroke="none">
<path d="M9510 10461 c-86 -28 -139 -59 -195 -115 -218 -218 -149 -586 135
-720 61 -29 72 -31 180 -31 104 0 120 3 174 27 l58 28 158 -150 c101 -96 166
-150 180 -150 28 0 70 43 70 72 0 17 -41 62 -151 168 l-152 145 41 63 c41 64
72 165 72 236 0 198 -155 390 -351 435 -66 16 -157 12 -219 -8z m252 -139 c60
-26 127 -93 158 -157 33 -69 35 -189 4 -256 -30 -64 -88 -125 -148 -157 -45
-24 -62 -27 -146 -27 -79 0 -102 4 -137 23 -62 33 -106 74 -136 130 -100 185
-13 396 193 463 43 14 161 4 212 -19z"/>
<path d="M2761 10170 c-121 -154 -221 -285 -221 -290 0 -6 63 -10 160 -10
l160 0 0 -215 0 -215 125 0 125 0 0 215 0 215 160 0 c88 0 160 3 160 8 0 6
-413 537 -440 565 -4 5 -107 -118 -229 -273z"/>
<path d="M4120 10155 l0 -215 -160 0 c-88 0 -160 -3 -160 -7 0 -6 424 -550
445 -571 2 -2 78 93 171 210 92 117 193 245 225 285 32 39 55 74 52 77 -4 3
-76 6 -162 6 l-156 0 0 212 0 213 -127 3 -128 3 0 -216z"/>
<path d="M5517 10323 c-4 -3 -7 -84 -7 -179 l0 -174 -177 -2 -178 -3 -3 -117
-3 -118 178 -2 178 -3 5 -180 5 -180 115 0 115 0 5 180 5 180 178 3 178 2 -3
118 -3 117 -177 3 -178 2 0 180 0 180 -113 0 c-63 0 -117 -3 -120 -7z"/>
<path d="M6667 10182 c-42 -42 -77 -82 -77 -87 0 -5 55 -65 122 -132 l123
-123 -123 -123 c-67 -67 -122 -127 -122 -132 0 -6 36 -46 80 -90 l80 -80 128
128 127 127 128 -127 127 -128 85 85 85 85 -127 127 -128 128 123 123 c67 67
122 129 122 138 0 16 -141 159 -157 159 -4 0 -62 -54 -128 -120 -66 -66 -124
-120 -130 -120 -6 0 -64 54 -130 120 -66 66 -122 120 -125 120 -3 0 -40 -35
-83 -78z"/>
<path d="M7886 9944 c-3 -9 -6 -55 -6 -104 0 -49 3 -95 6 -104 5 -14 55 -16
459 -16 404 0 454 2 459 16 3 9 6 55 6 104 0 49 -3 95 -6 104 -5 14 -55 16
-459 16 -404 0 -454 -2 -459 -16z"/>
<path d="M9737 8062 c-16 -17 -17 -73 -17 -658 0 -485 3 -643 12 -652 7 -7 42
-12 85 -12 l73 0 0 260 0 260 88 0 88 0 31 44 c59 84 136 125 234 126 99 0
185 -45 235 -125 l29 -45 148 0 147 0 0 -260 0 -261 83 3 82 3 3 593 2 594
-62 74 -63 75 -90 -3 -90 -3 -3 -242 -2 -243 -360 0 -361 0 1 243 1 242 -139
3 c-124 2 -140 1 -155 -16z"/>
<path d="M22 8054 l-22 -15 0 -644 c0 -572 2 -645 16 -659 11 -12 35 -16 85
-16 l69 0 0 265 0 265 500 0 500 0 2 -262 3 -263 62 -3 c114 -5 103 -69 103
608 l0 589 -66 76 -66 76 -87 -3 -86 -3 -3 -242 -2 -243 -360 0 -360 0 0 245
0 245 -133 0 c-104 0 -137 -3 -155 -16z"/>
<path d="M1642 8054 l-22 -15 0 -644 c0 -572 2 -645 16 -659 11 -12 35 -16 85
-16 l69 0 0 265 0 265 185 0 184 0 63 79 c35 44 66 80 69 80 3 1 34 -35 68
-79 l62 -80 184 0 185 0 2 -262 3 -263 62 -3 c114 -5 103 -69 103 608 l0 589
-66 76 -66 76 -87 -3 -86 -3 -3 -242 -2 -243 -360 0 -360 0 0 245 0 245 -133
0 c-104 0 -137 -3 -155 -16z"/>
<path d="M3262 8054 l-22 -15 0 -644 0 -644 22 -15 c15 -11 45 -16 85 -16 l63
0 0 265 0 265 160 0 160 0 0 60 0 60 185 0 185 0 0 -60 0 -60 155 0 155 0 2
-262 3 -263 62 -3 c114 -5 103 -69 103 610 l0 591 -66 74 -66 74 -87 -3 -86
-3 -3 -242 -2 -243 -360 0 -360 0 0 245 0 245 -133 0 c-104 0 -137 -3 -155
-16z"/>
<path d="M4890 8057 l-25 -13 -3 -644 -2 -645 21 -17 c15 -13 39 -18 85 -18
l64 0 0 265 0 265 168 2 167 3 3 88 3 87 164 0 165 0 0 -90 0 -90 165 0 165 0
2 -262 3 -263 62 -3 c114 -5 103 -69 103 610 l0 591 -66 74 -66 74 -87 -3 -86
-3 -3 -242 -2 -243 -360 0 -360 0 0 245 0 245 -127 0 c-83 0 -137 -5 -153 -13z"/>
<path d="M6510 8057 l-25 -13 -3 -644 -2 -645 21 -17 c15 -13 39 -18 85 -18
l64 0 0 265 0 265 50 0 c38 0 50 4 50 15 0 18 67 93 123 137 l39 31 92 -92 91
-91 60 0 60 0 92 92 93 93 75 -75 c41 -41 75 -82 75 -92 0 -15 9 -18 50 -18
l50 0 2 -262 3 -263 62 -3 c114 -5 103 -69 103 610 l0 591 -66 74 -66 74 -87
-3 -86 -3 -3 -242 -2 -243 -360 0 -360 0 0 245 0 245 -127 0 c-83 0 -137 -5
-153 -13z"/>
<path d="M8112 8048 c-9 -9 -12 -168 -12 -653 0 -741 -10 -675 103 -675 l67 0
0 265 0 265 75 0 74 0 3 60 3 61 348 2 347 2 0 -62 0 -63 75 0 75 0 2 -262 3
-263 68 -3 c42 -2 74 2 83 9 12 10 14 106 14 600 l0 588 -60 71 -61 70 -94 0
-95 0 0 -240 0 -240 -360 0 -360 0 0 240 0 240 -143 0 c-98 0 -147 -4 -155
-12z"/>
<path d="M10482 7858 l3 -163 70 0 70 0 3 163 2 162 -75 0 -75 0 2 -162z"/>
<path d="M760 7845 l0 -165 75 0 75 0 -2 163 -3 162 -72 3 -73 3 0 -166z"/>
<path d="M2380 7845 l0 -165 75 0 75 0 -2 163 -3 162 -72 3 -73 3 0 -166z"/>
<path d="M4000 7845 l0 -165 75 0 75 0 0 165 0 165 -75 0 -75 0 0 -165z"/>
<path d="M5620 7845 l0 -165 75 0 75 0 -2 163 -3 162 -72 3 -73 3 0 -166z"/>
<path d="M7240 7845 l0 -165 75 0 75 0 0 165 0 165 -75 0 -75 0 0 -165z"/>
<path d="M8860 7840 l0 -160 75 0 75 0 0 160 0 160 -75 0 -75 0 0 -160z"/>
<path d="M11426 7893 c-3 -16 -6 -66 -8 -113 l-3 -85 645 -3 c355 -1 650 0
657 2 11 4 9 19 -12 114 l-5 22 -435 0 -435 0 -62 45 -62 45 -137 0 -137 0 -6
-27z"/>
<path d="M11383 7313 c4 -174 7 -374 7 -445 l0 -128 689 0 688 0 7 408 c4 224
9 424 12 445 l6 37 -708 0 -707 0 6 -317z"/>
<path d="M2167 7110 l-117 -150 85 0 84 0 3 -117 3 -118 65 0 65 0 3 117 3
117 83 3 84 3 -114 145 c-63 80 -118 146 -122 147 -4 1 -60 -65 -125 -147z"/>
<path d="M3840 7145 l0 -115 -81 0 c-44 0 -79 -4 -77 -9 7 -20 224 -290 231
-288 4 1 59 67 122 147 l114 145 -84 3 -85 3 0 114 0 115 -70 0 -70 0 0 -115z"/>
<path d="M5470 7155 l0 -94 -97 -3 -98 -3 0 -60 0 -60 98 -3 97 -3 0 -94 0
-95 65 0 65 0 0 95 0 94 93 3 92 3 3 63 3 62 -96 0 -95 0 0 95 0 95 -65 0 -65
0 0 -95z"/>
<path d="M10275 7206 c-38 -17 -90 -72 -104 -109 -29 -77 2 -175 70 -223 47
-32 131 -44 179 -24 28 12 32 10 97 -49 69 -62 99 -74 110 -44 5 12 -12 33
-61 78 l-68 61 21 39 c39 73 22 185 -36 237 -49 45 -148 61 -208 34z m162 -72
c59 -45 67 -134 17 -193 -44 -53 -122 -63 -182 -23 -69 45 -72 174 -4 218 59
39 115 38 169 -2z"/>
<path d="M6965 7130 l-39 -40 66 -68 67 -67 -65 -67 -65 -67 31 -40 c18 -22
39 -42 48 -46 11 -4 37 16 82 60 l65 65 68 -67 67 -67 45 44 45 44 -67 68 -67
68 62 63 c34 34 62 67 62 73 0 12 -72 84 -85 84 -5 0 -38 -28 -72 -62 l-63
-62 -63 62 c-34 34 -67 62 -73 62 -5 0 -28 -18 -49 -40z"/>
<path d="M8532 6978 l3 -63 240 0 240 0 3 63 3 62 -246 0 -246 0 3 -62z"/>
<path d="M10426 6001 c-10 -11 -66 -114 -125 -228 l-106 -208 -160 -17 c-334
-36 -364 -43 -351 -86 4 -12 82 -92 174 -178 92 -86 168 -164 170 -173 2 -10
-18 -104 -43 -210 -57 -237 -64 -288 -42 -297 21 -8 97 28 300 139 87 48 164
87 171 87 7 0 80 -39 162 -86 254 -146 295 -163 308 -128 6 17 -9 129 -48 354
-18 101 -21 139 -12 149 6 8 81 76 166 151 184 164 203 183 198 206 -4 25 -63
37 -308 64 -107 12 -198 25 -201 29 -3 3 -41 87 -83 186 -113 266 -130 290
-170 246z m124 -256 c51 -119 96 -218 100 -220 4 -3 104 -16 221 -30 118 -14
225 -29 237 -33 22 -7 7 -22 -157 -165 -163 -142 -181 -161 -181 -190 0 -17
14 -110 30 -207 17 -96 33 -190 36 -207 3 -21 1 -33 -6 -33 -7 0 -98 50 -204
110 -106 61 -201 110 -210 110 -10 0 -104 -47 -209 -104 -106 -58 -200 -108
-210 -112 -23 -8 -22 -1 39 251 24 99 44 189 44 200 1 13 -58 76 -167 181 -92
89 -165 165 -162 168 3 3 109 17 235 31 208 23 231 28 248 48 11 12 48 83 84
157 64 133 131 260 137 260 1 0 44 -97 95 -215z"/>
<path d="M11934 5961 c-247 -67 -442 -265 -500 -508 -22 -89 -22 -240 -1 -323
51 -196 186 -366 361 -455 199 -100 421 -100 621 -1 191 94 326 270 369 479
70 337 -128 681 -454 791 -114 39 -288 46 -396 17z m326 -137 c194 -54 353
-226 391 -422 16 -83 6 -221 -20 -297 -29 -81 -103 -187 -168 -240 -106 -86
-216 -125 -359 -125 -158 0 -290 56 -397 170 -232 246 -200 623 69 826 138
103 314 135 484 88z"/>
<path d="M12012 5648 c-9 -9 -12 -76 -12 -239 0 -194 2 -230 16 -243 13 -13
46 -16 209 -16 106 0 200 3 209 6 12 4 16 20 16 54 0 34 -4 50 -16 54 -9 3
-83 6 -165 6 l-149 0 0 179 c0 150 -3 182 -16 195 -18 19 -75 21 -92 4z"/>
<path d="M6740 5960 c-199 -42 -341 -230 -328 -436 8 -120 95 -277 281 -508
104 -130 285 -317 361 -372 78 -59 104 -58 187 4 128 97 369 368 497 560 137
203 167 318 122 463 -64 207 -274 335 -469 285 -87 -22 -155 -61 -206 -118
l-43 -48 -16 25 c-26 40 -111 102 -170 124 -65 24 -156 33 -216 21z m222 -85
c63 -31 120 -84 155 -142 14 -24 26 -43 28 -43 2 0 14 19 28 43 34 57 106 123
165 149 35 16 68 22 132 22 77 1 92 -2 152 -32 77 -38 130 -92 167 -171 22
-48 26 -70 26 -147 0 -86 -2 -94 -42 -176 -114 -230 -541 -718 -628 -718 -60
0 -354 304 -516 535 -120 170 -159 258 -159 360 0 154 102 293 249 340 69 22
176 13 243 -20z"/>
<path d="M8770 5938 c-11 -18 -63 -120 -115 -225 -53 -106 -99 -193 -103 -193
-23 0 -458 -51 -478 -56 -13 -3 -24 -10 -24 -14 0 -5 79 -84 175 -177 96 -92
175 -174 175 -182 0 -7 -22 -109 -50 -226 -46 -198 -58 -265 -45 -265 9 0 103
48 272 141 89 49 171 89 181 89 10 0 90 -41 178 -91 192 -110 261 -145 270
-136 6 5 -51 380 -71 474 -4 18 21 45 142 151 236 206 239 209 228 221 -6 6
-85 20 -175 31 -229 28 -311 39 -320 45 -4 3 -38 76 -75 162 -92 214 -125 283
-136 283 -5 0 -18 -15 -29 -32z"/>
<path d="M403 5926 c-163 -40 -310 -174 -372 -340 -27 -73 -37 -192 -22 -271
18 -101 80 -213 159 -286 164 -154 380 -192 586 -100 40 17 52 19 65 9 9 -7
94 -86 188 -175 146 -137 178 -163 203 -163 41 0 80 42 80 85 0 29 -19 50
-180 200 -173 161 -180 169 -165 189 40 56 77 127 95 185 25 79 27 214 4 292
-54 184 -198 325 -384 374 -66 18 -186 18 -257 1z m198 -146 c123 -23 236
-115 280 -228 33 -81 32 -204 -1 -287 -28 -71 -111 -159 -181 -193 -273 -131
-587 98 -539 394 25 155 128 267 283 309 64 17 89 18 158 5z"/>
<path d="M1973 5925 c-123 -33 -248 -123 -314 -226 -137 -214 -109 -481 70
-660 163 -163 395 -205 603 -108 l47 22 187 -177 c191 -180 208 -191 255 -166
30 16 51 65 40 93 -5 13 -88 97 -184 187 l-175 163 40 59 c122 178 122 420 2
595 -72 105 -188 186 -309 218 -73 18 -192 18 -262 0z m272 -166 c77 -29 156
-104 197 -187 30 -61 33 -74 33 -162 0 -88 -3 -101 -33 -162 -41 -83 -120
-158 -200 -189 -79 -31 -195 -31 -275 0 -76 30 -167 114 -204 189 -25 51 -28
67 -28 162 0 94 3 111 27 160 89 180 293 260 483 189z"/>
<path d="M2058 5513 l-3 -68 -69 -5 -69 -5 0 -40 0 -40 69 -5 69 -5 3 -67 3
-68 44 0 45 0 0 70 0 70 70 0 70 0 0 45 0 45 -70 0 -70 0 0 70 0 70 -45 0 -44
0 -3 -67z"/>
<path d="M3535 5921 c-123 -35 -232 -114 -301 -218 -117 -176 -117 -410 0
-586 72 -108 186 -188 316 -222 95 -25 224 -17 310 19 36 15 72 29 80 32 9 2
86 -64 195 -166 99 -94 190 -173 203 -177 50 -12 110 44 98 91 -4 15 -81 96
-184 193 l-178 168 33 46 c153 213 129 494 -56 680 -138 138 -336 192 -516
140z m274 -160 c68 -26 126 -70 172 -131 47 -63 69 -132 69 -220 0 -88 -22
-157 -69 -220 -78 -103 -183 -155 -311 -154 -145 2 -267 79 -332 212 -30 61
-33 74 -33 162 0 82 4 103 27 152 86 184 291 270 477 199z"/>
<path d="M3470 5391 c0 -27 4 -51 10 -53 5 -1 98 -2 205 0 l195 3 0 49 0 50
-205 0 -205 0 0 -49z"/>
<path d="M4999 5897 c-104 -30 -199 -112 -247 -215 -24 -50 -27 -70 -27 -157
0 -91 3 -106 32 -167 118 -249 567 -758 669 -758 30 0 152 98 245 198 180 193
335 399 407 541 46 92 47 97 47 186 0 85 -2 96 -38 167 -43 87 -98 143 -186
185 -48 23 -69 27 -146 28 -77 0 -98 -4 -147 -27 -75 -35 -119 -69 -153 -118
l-28 -40 -54 60 c-73 80 -153 120 -254 126 -44 2 -93 -1 -120 -9z"/>
<path d="M365 3505 l-360 -354 108 -1 107 0 0 -320 0 -320 193 2 192 3 3 188
2 187 125 0 125 0 2 -187 3 -188 193 -3 192 -2 0 320 0 320 106 0 c58 0 104 3
102 8 -6 15 -710 697 -721 699 -7 1 -174 -157 -372 -352z"/>
<path d="M4128 3682 c-40 -25 -548 -748 -548 -779 0 -92 108 -167 190 -133 44
18 478 636 463 659 -6 9 -15 16 -22 16 -6 0 -109 -139 -229 -310 l-218 -310
-41 -3 c-35 -3 -44 1 -67 29 -15 18 -26 39 -23 48 7 27 509 731 528 742 23 12
34 6 145 -73 59 -42 84 -66 84 -81 0 -11 -144 -222 -321 -468 l-320 -448 -42
-6 c-79 -11 -252 -22 -259 -16 -4 3 -12 63 -19 132 l-11 126 261 372 c143 205
261 376 261 381 0 5 -9 14 -19 20 -18 9 -36 -14 -183 -222 -89 -128 -210 -301
-268 -384 l-106 -150 7 -95 c13 -156 20 -207 34 -225 12 -17 23 -17 166 -5 85
7 166 15 181 18 23 5 85 85 363 473 230 322 335 476 335 494 0 36 -45 83 -150
154 -98 66 -127 74 -172 44z"/>
<path d="M12283 3680 c-24 -10 -64 -39 -90 -63 -27 -24 -58 -49 -70 -56 -36
-19 -136 -13 -218 13 l-75 24 0 -269 0 -268 68 -21 c87 -27 179 -36 224 -21
21 7 52 31 76 60 23 27 62 59 88 71 83 41 209 15 322 -66 l22 -16 0 270 0 270
-48 31 c-99 63 -215 80 -299 41z"/>
<path d="M5307 3684 c-4 -4 -7 -103 -7 -221 l0 -213 -160 0 c-88 0 -160 -4
-160 -8 0 -13 439 -567 450 -567 10 0 450 554 450 567 0 5 -72 8 -160 8 l-160
0 -2 218 -3 217 -121 3 c-66 1 -123 -1 -127 -4z"/>
<path d="M6898 3402 l-226 -287 161 -5 162 -5 5 -220 5 -220 120 0 120 0 5
220 5 220 162 5 162 5 -220 280 c-121 154 -224 283 -228 287 -4 5 -109 -121
-233 -280z"/>
<path d="M11685 3668 c-3 -7 -4 -285 -3 -618 l3 -605 24 -3 c12 -2 34 -1 47 2
l24 6 -2 613 -3 612 -43 3 c-28 2 -44 -1 -47 -10z"/>
<path d="M1842 3557 c-61 -62 -112 -119 -112 -127 0 -8 79 -94 175 -190 l175
-175 -175 -175 c-96 -96 -175 -182 -175 -190 0 -16 219 -240 235 -240 5 0 89
80 187 177 l178 178 178 -178 c97 -97 182 -177 187 -177 16 0 235 224 235 240
0 8 -79 94 -175 190 l-175 175 175 175 c96 97 175 183 175 191 0 22 -212 229
-235 229 -12 0 -85 -66 -192 -172 l-172 -172 -53 50 c-29 27 -111 106 -182
176 -70 71 -131 128 -135 128 -3 0 -57 -51 -119 -113z"/>
<path d="M9990 3350 c-14 -14 -20 -33 -20 -65 0 -32 6 -51 20 -65 19 -19 33
-20 473 -20 519 0 487 -6 487 88 0 86 23 82 -492 82 -435 0 -449 -1 -468 -20z"/>
<path d="M9205 3085 c-22 -8 -41 -15 -42 -15 -1 0 -14 -17 -28 -37 -49 -73
-25 -181 48 -220 51 -27 118 -22 162 11 139 107 24 321 -140 261z"/>
<path d="M8390 3071 c-50 -26 -84 -96 -75 -151 9 -53 55 -106 105 -121 148
-44 261 137 152 246 -49 49 -120 60 -182 26z"/>
<path d="M8792 3069 c-138 -69 -88 -279 67 -279 159 0 210 216 68 284 -47 22
-83 20 -135 -5z"/>
<path d="M9992 3027 c-31 -33 -30 -90 3 -123 l25 -25 444 3 c497 3 473 0 483
74 4 30 0 45 -17 67 l-21 27 -448 0 -448 0 -21 -23z"/>
<path d="M4790 2675 l0 -215 640 0 640 0 0 215 0 215 -75 0 -75 0 0 -150 0
-150 -490 0 -490 0 0 150 0 150 -75 0 -75 0 0 -215z"/>
<path d="M6484 2857 c-2 -7 -3 -102 -2 -212 l3 -200 640 0 640 0 3 213 2 212
-80 0 -80 0 0 -150 0 -150 -485 0 -485 0 0 150 0 150 -75 0 c-52 0 -77 -4 -81
-13z"/>
<path d="M10013 2730 c-43 -18 -58 -94 -27 -138 l15 -22 458 0 c520 0 491 -5
491 81 0 89 31 84 -472 86 -244 1 -453 -2 -465 -7z"/>
<path d="M3628 1393 l-3 -78 -196 -3 -197 -2 -4 -41 c-2 -23 1 -43 7 -45 5 -2
287 -3 625 -2 l615 3 0 45 0 45 -212 3 -213 2 0 75 0 75 -210 0 -209 0 -3 -77z
m352 -33 l0 -40 -140 0 -140 0 0 40 0 40 140 0 140 0 0 -40z"/>
<path d="M10295 1446 c-89 -41 -145 -115 -161 -213 -6 -38 -9 -41 -46 -47 -80
-13 -155 -70 -195 -150 -32 -63 -36 -159 -9 -221 12 -27 18 -62 17 -107 -2
-79 21 -133 71 -171 52 -38 93 -47 214 -47 l114 0 0 125 0 125 293 -2 292 -3
3 -122 3 -123 137 0 c167 0 201 9 257 64 95 95 75 250 -41 318 -32 19 -34 23
-34 76 -1 177 -176 303 -350 251 -34 -10 -39 -9 -71 20 -18 17 -52 38 -75 47
-29 11 -46 25 -57 49 -64 134 -229 194 -362 131z"/>
<path d="M8587 1385 c-86 -33 -155 -119 -172 -215 -6 -33 -10 -36 -66 -53 -71
-21 -143 -81 -170 -142 -30 -70 -33 -124 -9 -190 11 -33 21 -67 21 -75 -3 -98
-1 -122 12 -146 39 -74 113 -114 211 -114 l65 0 183 235 c101 129 185 234 188
234 3 0 88 -105 188 -234 l184 -235 106 0 c116 0 167 15 209 61 81 89 65 238
-32 298 -42 26 -43 26 -47 96 -5 78 -22 117 -69 164 -69 69 -174 97 -258 68
l-44 -16 -44 39 c-25 21 -58 42 -74 45 -21 5 -33 16 -43 38 -19 47 -62 94
-113 124 -56 32 -166 41 -226 18z"/>
<path d="M515 1375 c-224 -57 -417 -240 -485 -460 -49 -160 -34 -337 42 -494
56 -118 178 -241 295 -299 209 -103 455 -96 651 20 85 50 201 170 244 253 38
73 81 201 73 215 -3 4 -31 11 -62 14 -32 4 -65 9 -74 12 -12 3 -20 -10 -33
-60 -44 -161 -186 -300 -355 -350 -62 -18 -196 -21 -256 -6 -323 84 -486 432
-340 727 86 174 263 283 460 283 45 0 106 -7 136 -16 66 -20 160 -68 188 -98
l20 -21 -75 -85 c-44 -49 -70 -86 -63 -87 72 -11 492 -53 495 -50 4 4 -87 430
-102 479 -4 13 -18 3 -61 -45 -31 -34 -61 -68 -68 -75 -10 -11 -27 -3 -92 41
-116 79 -208 108 -358 113 -85 2 -137 -1 -180 -11z"/>
<path d="M5405 1369 c-114 -17 -200 -53 -301 -124 l-60 -43 -65 74 c-35 40
-67 73 -70 74 -7 0 -114 -488 -108 -494 5 -5 489 51 495 57 3 3 -27 40 -65 83
-39 44 -71 82 -71 85 0 26 167 114 238 125 42 7 42 6 42 -25 0 -30 1 -31 45
-31 43 0 45 1 45 28 0 16 2 31 5 34 9 9 97 -9 156 -31 31 -12 76 -35 99 -52
l41 -30 -27 -36 -27 -36 32 -29 33 -30 27 26 c15 14 30 26 34 26 28 0 107
-186 107 -251 0 -26 -4 -29 -30 -29 -23 0 -33 -6 -42 -25 -17 -38 3 -75 42
-75 23 0 30 -4 30 -20 0 -31 -45 -147 -75 -191 l-27 -41 -27 26 c-33 32 -42
32 -69 3 -28 -29 -27 -33 3 -73 l25 -32 -48 -31 c-60 -38 -127 -68 -174 -76
-33 -6 -38 -5 -38 12 0 26 -19 43 -50 43 -32 0 -50 -17 -50 -48 0 -22 -2 -23
-47 -16 -69 10 -149 40 -204 75 -103 66 -205 208 -224 312 l-8 39 -46 -7
c-130 -18 -125 -9 -82 -131 58 -167 176 -301 336 -380 517 -256 1088 208 948
771 -56 224 -252 420 -478 479 -80 20 -196 27 -270 15z"/>
<path d="M2260 1106 l0 -196 -302 -2 -303 -3 -3 -144 c-2 -109 1 -146 10 -153
7 -4 145 -8 306 -8 l292 0 0 -190 c0 -104 2 -190 5 -190 5 0 772 516 788 530
5 4 -117 92 -270 196 -153 103 -333 225 -400 271 l-123 84 0 -195z"/>
<path d="M6863 1011 c-216 -146 -393 -269 -393 -272 0 -6 785 -539 794 -539 3
0 5 87 5 192 l0 193 301 3 300 2 0 150 0 150 -301 2 -301 3 2 187 c0 102 -3
188 -7 191 -4 2 -185 -116 -400 -262z"/>
<path d="M12264 1231 c-22 -10 -64 -39 -92 -65 -29 -25 -64 -49 -78 -52 -35
-9 -102 1 -171 27 -32 11 -66 23 -76 26 -16 5 -17 -11 -15 -268 l3 -273 70
-22 c164 -52 227 -43 320 46 66 62 101 76 168 66 52 -8 135 -51 181 -94 l36
-32 0 284 0 284 -48 31 c-26 17 -67 37 -91 46 -60 21 -156 19 -207 -4z m238
-68 l53 -30 3 -212 c1 -116 0 -211 -3 -211 -3 0 -29 12 -57 26 -116 59 -224
41 -315 -53 l-53 -53 -68 0 c-38 0 -92 7 -120 15 l-52 16 0 214 c0 118 3 215
8 215 4 0 29 -7 56 -15 58 -18 133 -19 173 -4 15 5 46 28 68 49 64 63 109 81
187 77 51 -3 79 -11 120 -34z"/>
<path d="M11685 1228 c-3 -7 -4 -285 -3 -618 l3 -605 45 0 45 0 0 615 0 615
-43 3 c-28 2 -44 -1 -47 -10z"/>
<path d="M3347 1142 c-15 -17 -17 -68 -17 -534 0 -486 1 -516 18 -531 17 -15
66 -17 505 -17 428 0 487 2 501 16 14 14 16 76 16 534 0 458 -2 520 -16 534
-14 14 -73 16 -503 16 -460 0 -489 -1 -504 -18z m249 -103 l24 -22 0 -422 c0
-409 -1 -422 -20 -443 -38 -41 -125 -42 -164 -2 -20 20 -21 32 -24 418 -2 218
0 412 3 430 13 69 124 95 181 41z m313 16 c16 -8 31 -22 35 -30 3 -9 6 -205 6
-435 0 -468 2 -455 -72 -467 -47 -7 -83 2 -108 27 -19 19 -20 35 -20 443 0
324 3 427 13 439 31 39 96 49 146 23z m358 -20 l23 -26 0 -415 0 -416 -29 -29
c-42 -42 -110 -42 -152 0 l-29 29 0 414 c0 447 0 446 54 469 39 17 108 4 133
-26z"/>
<path d="M5455 1038 c-2 -7 -6 -76 -8 -153 -3 -77 -8 -155 -12 -173 -8 -36 14
-72 44 -72 9 0 63 -43 121 -95 58 -52 110 -95 116 -95 14 0 44 33 44 47 0 6
-43 51 -96 100 -53 48 -103 104 -112 123 -13 26 -18 74 -22 180 l-5 145 -33 3
c-20 2 -34 -2 -37 -10z"/>
<path d="M8713 568 c-76 -101 -139 -186 -141 -190 -2 -5 42 -8 97 -8 l101 0 0
-145 0 -145 80 0 80 0 0 145 0 145 100 0 c55 0 100 3 100 7 0 6 -210 290 -256
346 l-23 28 -138 -183z"/>
<path d="M10510 520 l0 -139 -105 -3 -105 -3 144 -183 c79 -101 146 -185 149
-185 3 -1 71 81 151 183 l146 185 -105 3 -105 3 0 139 0 140 -85 0 -85 0 0
-140z"/>
</g>
</svg>
