<svg xmlns="http://www.w3.org/2000/svg" viewBox="0 0 300 300"><defs><style>.cls-1{fill:#009688;}</style></defs><g id="Camada_2" data-name="Camada 2"><g id="Camada_1-2" data-name="Camada 1"><path class="cls-1" d="M159.26.28c-1.8.12-10.41.24-19.1.26C126.63.59,124,.63,122,1c-9.31,1.55-14.59,4.78-17.59,10.76-2.81,5.62-3.68,15.37-2.76,31.54.28,5.09.4,13.09.47,33l.11,26.34-38.3,0c-40.07-.07-40.77,0-45.79,1C7.41,105.76,2,111.45.9,121.58c-.12,1.15-.24,4-.24,6.35S.5,137.52.29,144.06C-.23,160-.06,169,.9,180c.42,4.57,1.8,7.93,4.45,10.76,4.48,4.78,10.86,7,22.41,7.72,4.27.28,7.2.21,28.47-.54,11.3-.4,30-.54,34.81-.23,7.24.44,10.74,1.2,11,2.42.07.31.14,17,.19,37.15.07,32.14.11,36.92.47,39.2,1.82,12.64,6,18.81,14.84,21.76,4.43,1.5,3.84,1.45,31.74,1.67,16.74.11,26.33.11,28-.05,13.29-1.22,19.45-9.09,20.77-26.53a190.18,190.18,0,0,0-.28-19.33c-.15-1.49-.36-13.35-.47-26.37s-.26-24.46-.28-25.45c-.05-2.21.25-2.85,1.68-3.56l1.08-.54,39.51,0c29.54,0,40-.1,41.61-.31a20.66,20.66,0,0,0,9.38-3.62,19,19,0,0,0,6.89-9.59c1-3.17,1.22-5.13,1.43-14.71.12-5.06.37-11.42.56-14.13,1.22-17.16,1.06-26.62-.58-34.23a38.8,38.8,0,0,0-3.12-8.83,18.62,18.62,0,0,0-9.9-8.64c-3.82-1.32-.93-1.22-45.22-1.36-37.39-.14-40.86-.17-41.66-.54-1.59-.73-1.74-1.2-1.59-5.49.07-2.07.11-19.87.11-39.55,0-37.72,0-37.51-1.08-41.72a19.13,19.13,0,0,0-6.26-9.87C184.25,1,174.15-.73,159.26.28Z"/></g></g></svg>