<svg xmlns="http://www.w3.org/2000/svg" viewBox="0 0 280.36 300"><defs><style>.cls-1{fill:#009688;}</style></defs><g id="Camada_2" data-name="Camada 2"><g id="Camada_1-2" data-name="Camada 1"><path class="cls-1" d="M219.11,20.8C203.25,39.1,166.54,81.37,49.54,216L18.6,251.61l-4.61,12c-2.53,6.61-6.46,16.72-8.77,22.49C1,296.65-.15,299.82,0,300s5-2.41,13.14-7.21c2.5-1.45,10.69-6.13,18.2-10.32,9.06-5.11,13.88-7.95,14.34-8.45,2.14-2.48,111.85-128.57,160.06-184l57.39-65.95.52-.6L262.91,20c-.43-1.9-1-4.29-1.19-5.29l-.41-1.84-6.92-6-6.91-6L244.09.52l-5.15-.4L237.15,0Z"/><path class="cls-1" d="M268.4,243.64c-1.53.27-33.52,6.16-58.45,10.76l-12.16,2.25c-11.07,2.05-22.28,4.12-31,5.72-8.54,1.57-17.3,3.2-53.08,9.78-74.35,13.69-78.36,14.43-80.6,15.05s-15.58,5.7-20,7.64c-4.67,2.05-5.7,3.6-2.79,4.29,1.79.4,7.73.48,18.2.24,7.18-.17,11.24-.38,12.53-.6l48.06-8.85c12.41-2.29,33.11-6.11,46-8.47s25.55-4.7,28-5.15l13.48-2.48,22.54-4.15c12.76-2.36,39.62-7.3,60.47-11.12,17-3.12,17.22-3.17,19.13-5s2.05-4.15.41-6.7C277.34,243.88,273.48,242.74,268.4,243.64Z"/></g></g></svg>