<svg xmlns="http://www.w3.org/2000/svg" viewBox="0 0 83.84 100"><defs><style>.cls-1{fill:#171717;}.cls-2{fill:#fff;}.cls-3{fill:#fbccab;}</style></defs><g id="Camada_2" data-name="Camada 2"><g id="Camada_2-2" data-name="Camada 2"><g id="editar_e"><path class="cls-1" d="M32.27,81.84,31.86,89l4.85-3.2-4.44-3.93"/><path class="cls-1" d="M59,14.39,33.42,62.47l3.77,2L62.8,16.4Zm7.4,4.23L40.83,66.7l3.77,2L70.2,20.63Zm7.27,3.66L48.09,70.36l3.63,1.81L77.47,24.29Z"/><path class="cls-2" d="M33.91,61.42l6.7-3.31.7,7.86,7.12-4.42.42,7.73,6.42-3.59-2.93,5.79L37.26,85.13l-4.75-2.48,1.4-21.23"/><path class="cls-3" d="M33.52,62.22l6.62-3.31.69,7.86,7-4.42.41,7.73,6.35-3.59-2.9,5.79L36.83,85.93l-4.69-2.48,1.38-21.23"/><path class="cls-1" d="M67.65.42c-4.22,2.93-8.38,12.94-8.38,12.94l2.26,1.22,0,.08,16.63,9L83.6,11.23s.56-2.76,0-3.92c-.18-.37-1-.75-1-.75L77.64,4,69.52,0a4.87,4.87,0,0,0-1.87.41Z"/><path class="cls-1" d="M0,95.73,5.3,100A53.25,53.25,0,0,1,31.6,89.11,42.61,42.61,0,0,0,6.84,96.83L2.05,94.35a1.4,1.4,0,0,0-.78-.11,1.55,1.55,0,0,0-.72.31A1.49,1.49,0,0,0,0,95.73"/></g></g></g></svg>