<svg xmlns="http://www.w3.org/2000/svg" viewBox="0 0 78.2 102.5"><defs><style>.cls-1{fill:#171717;}.cls-2{fill:#4d4d4d;}.cls-3{fill:#989898;}.cls-4{fill:#5b5758;}.cls-5{fill:none;stroke:#b7abb0;stroke-miterlimit:5.36;stroke-width:5px;}</style></defs><g id="Camada_2" data-name="Camada 2"><g id="Camada_2-2" data-name="Camada 2"><g id="excluir_e"><path class="cls-1" d="M0,16.1V97.88c0,2.55,13.38,4.62,29.89,4.62s29.9-2.07,29.9-4.62V16.1ZM4.23,91.2a2.51,2.51,0,0,1-2.42-2.45L1.73,28A2.51,2.51,0,0,1,4.1,25.56h0A2.5,2.5,0,0,1,6.56,28l.08,60.75A2.51,2.51,0,0,1,4.23,91.2Zm10.3,1.59a2.51,2.51,0,0,1-2.42-2.45L12,29.9a2.52,2.52,0,0,1,2.38-2.45h0a2.52,2.52,0,0,1,2.46,2.45L17,90.34A2.52,2.52,0,0,1,14.53,92.79Zm12.63-1.86a2.42,2.42,0,1,1-4.84,0L22.4,30.6a2.53,2.53,0,0,1,2.39-2.45h0a2.51,2.51,0,0,1,2.45,2.45Zm10.38,0a2.42,2.42,0,1,1-4.83,0V30.59a2.51,2.51,0,0,1,2.37-2.45h0a2.52,2.52,0,0,1,2.46,2.45Zm10.22-.6a2.42,2.42,0,1,1-4.83,0V29.9a2.5,2.5,0,0,1,2.37-2.45h0a2.52,2.52,0,0,1,2.46,2.45Zm9.73.18a2.42,2.42,0,0,1-4.18-1.8L53.15,28a2.52,2.52,0,0,1,2.37-2.46h0a2.49,2.49,0,0,1,1.75.7A2.46,2.46,0,0,1,58,28l.16,60.68A2.46,2.46,0,0,1,57.49,90.51Z"/><path class="cls-2" d="M59.79,16.11c0,3-13.38,5.43-29.89,5.43S0,19.11,0,16.11H0c0-3,13.38-5.44,29.89-5.44s29.89,2.43,29.9,5.43Z"/><path class="cls-3" d="M44,10.45a163.24,163.24,0,0,0-17.25-.77L9.61,8.07l-.51,5.4c-.32,3.44,14.78,7.67,33.71,9.44s34.56.42,34.88-3l.51-5.39-17.12-1.6A164.42,164.42,0,0,0,44,10.45Z"/><path class="cls-4" d="M78.19,14.49c-.32,3.44-15.94,4.8-34.87,3s-34-6-33.71-9.44h0c.32-3.45,15.94-4.8,34.87-3h0C63.42,6.82,78.51,11.05,78.19,14.49Z"/><path class="cls-1" d="M72.82,14c-.27,2.9-13.44,4-29.41,2.55s-28.7-5.06-28.43-8h0c.27-2.91,13.44-4,29.41-2.56h0C60.36,7.52,73.09,11.08,72.82,14Z"/><rect class="cls-3" x="31.53" y="5.72" width="3.2" height="6.4" transform="translate(21.16 41.07) rotate(-84.66)"/><rect class="cls-3" x="53.33" y="7.76" width="3.2" height="6.4" transform="translate(38.9 64.63) rotate(-84.66)"/><path class="cls-5" d="M33.13,8.93s.68-7.35,11.58-6.33S54.92,11,54.92,11"/></g></g></g></svg>