<svg xmlns="http://www.w3.org/2000/svg" viewBox="0 0 265.45 300"><defs><style>.cls-1{fill:#009688;}</style></defs><g id="Camada_2" data-name="Camada 2"><g id="Camada_1-2" data-name="Camada 1"><g id="excluir"><path class="cls-1" d="M85.24,16.38,84.6,33l-41.7.64L1,34,.13,42.77c-.42,4.89.21,9.14,1.49,9.57,1.06.43,61.06.64,133,.43l130.85-.64V33l-45.11-.64L175,31.91V0H85.88Zm74.89,7v8.51H100.56v-17h59.57Z"/><path class="cls-1" d="M25.45,69.79c-3.19,3.61-3.62,14.47-3.62,113.61,0,103.41.22,109.79,3.83,113S39.71,300,133.11,300c91.06,0,103.62-.43,106.6-3.4s3.4-16.17,3.4-113.62-.43-110.64-3.4-113.62-15.54-3.4-107-3.4C34.81,66,28.64,66.17,25.45,69.79Zm53,21.91,5.11,4.68v89.79c0,87-.22,89.79-4.26,94.26-8.08,8.72-26.6,8.93-34.89.42-4.26-4.25-4.47-6.81-5.11-88.94-.43-46.38,0-87.65.64-91.48C42.68,85.74,66.3,80.21,78.43,91.7ZM145,88.3c3.41,1.7,6.6,4.68,7.45,6.38.64,1.92,1.28,43.62,1.28,92.55,0,99.58.42,96.81-15.32,99.37q-15,2.23-23-5.75c-4-4-4.25-7.45-4.25-94.25,0-68.94.63-90.86,2.76-93.41C120.56,84.89,134.39,82.77,145,88.3Zm76.18,4.25,4.89,5.54v176.8l-6.17,6.17a22.85,22.85,0,0,1-32.34,0l-6.17-6.17V186.81c0-95.11,0-94.9,11.49-99.79C201.2,83.4,215.88,86.17,221.2,92.55Z"/></g></g></g></svg>