<svg xmlns="http://www.w3.org/2000/svg" viewBox="0 0 300 282.52"><defs><style>.cls-1{fill:#009688;}</style></defs><g id="Camada_2" data-name="Camada 2"><g id="Camada_1-2" data-name="Camada 1"><path class="cls-1" d="M136.58,10.66,77.45,63C51.54,86,26.72,108,22.26,111.91L8.2,124.33c-3.28,2.9-6.47,5.74-7.08,6.32L0,131.71l7.73,8.67c4.25,4.76,7.88,8.65,8,8.65s14.13-12.21,31-27.09c88.54-78.09,102.83-90.65,103-90.61s11,9.68,24.28,21.42S217.23,91,240.52,111.62,283,149.17,283.1,149.17a.49.49,0,0,0,.35-.24c.12-.18.26-.16.5,0,.44.35-.24,1,7.94-8.23,3.59-4,6.87-7.76,7.31-8.22l.8-.85-19.64-17.32c-10.8-9.54-36.18-31.94-56.43-49.77s-45-39.68-55-48.52L150.74,0h-2.11Z"/><path class="cls-1" d="M133.75,64.54,81.37,110.92,44.53,143.57l0,67.3.07,67.31.52,1a7.19,7.19,0,0,0,1.5,1.81c2,1.68-.56,1.57,36.58,1.57h33.47l.05-29.84c.07-29.67.07-29.81.56-30.86a6.4,6.4,0,0,1,3.14-3.14c1.05-.49,1.22-.49,28.68-.56,30.56-.07,29.25-.12,31,1.4a6.42,6.42,0,0,1,2.18,3.82c.18.94.25,10.64.25,30.28v28.9l34.78,0,34.8-.07.71-.68a9.13,9.13,0,0,0,1.47-2.46l.78-1.78,0-67,.05-67L202.7,97.14c-29.77-26.25-52.71-46.31-53-46.31S143.94,55.52,133.75,64.54Z"/></g></g></svg>