<svg xmlns="http://www.w3.org/2000/svg" viewBox="0 0 100 100"><defs><style>.cls-1{fill:#171717;}</style></defs><g id="Camada_2" data-name="Camada 2"><g id="Camada_2-2" data-name="Camada 2"><g id="inicio_e"><path class="cls-1" d="M0,47.26V44.83l0-.34.13-.28.24-.29.37-.36.58-.51,1-.92,1.4-1.26,1-.86,1.38-1.25L48.86.33a1.22,1.22,0,0,1,1.67,0L99.18,43.54l.08.08.11.12.1.11.09.12.08.11.08.13.07.13.06.13,0,.11,0,.12,0,.11,0,.1v.55l0,.14v1.67l-.08-.07-.72-.64-1.57-1.4-1.25-1.11-1-.89-1.11-1-1.48-1.31-1.5-1.34L88.8,37.33l-2.56-2.28-3-2.68-2.13-1.9-2.17-1.93L77.23,27,76.1,26l-1.88-1.67L65,16.13,50,2.76,48.65,3.94Z"/><path class="cls-1" d="M94.68,46.17,50,6.76,4.32,46.54V100H94.69V46.17ZM48,93.85H16.14V66.61H48ZM48,64H16.14V46.16H48Zm4.28-17.8H84.14V64H52.29ZM84.16,93.83H52.28V66.6H84.16Z"/></g></g></g></svg>