<svg xmlns="http://www.w3.org/2000/svg" xmlns:xlink="http://www.w3.org/1999/xlink" viewBox="0 0 20 24.15"><defs><style>.cls-1{fill:url(#Gradiente_sem_nome);}.cls-2{fill:url(#Gradiente_sem_nome_8);}.cls-3{fill:url(#Gradiente_sem_nome_9);}.cls-4{fill:url(#Gradiente_sem_nome_10);}.cls-5{fill:url(#Gradiente_sem_nome_8-2);}.cls-6{fill:url(#Gradiente_sem_nome_9-2);}.cls-7{fill:url(#Gradiente_sem_nome_10-2);}.cls-8{fill:url(#Gradiente_sem_nome_8-3);}.cls-9{fill:url(#Gradiente_sem_nome_9-3);}.cls-10{fill:url(#Gradiente_sem_nome_10-3);}.cls-11{fill:url(#Gradiente_sem_nome_11);}</style><radialGradient id="Gradiente_sem_nome" cx="562.16" cy="-2019.28" r="16.88" gradientTransform="matrix(0.59, 0, 0, -0.19, -323.12, -353.18)" gradientUnits="userSpaceOnUse"><stop offset="0" stop-color="#484849"/><stop offset="0" stop-color="#434344"/><stop offset="1" stop-color="#8f8f90" stop-opacity="0"/></radialGradient><linearGradient id="Gradiente_sem_nome_8" x1="743.45" y1="-416.61" x2="775.63" y2="-412.48" gradientTransform="matrix(0.47, 0, 0, -1.05, -343.83, -415.88)" gradientUnits="userSpaceOnUse"><stop offset="0" stop-color="#1c4764"/><stop offset="1" stop-color="#39769e"/></linearGradient><linearGradient id="Gradiente_sem_nome_9" x1="15.53" y1="-97.52" x2="31.43" y2="-97.52" gradientTransform="matrix(1, 0, 0, -1, -13.06, -79.87)" gradientUnits="userSpaceOnUse"><stop offset="0" stop-color="#1b4a78"/><stop offset="1" stop-color="#5dacd1"/></linearGradient><linearGradient id="Gradiente_sem_nome_10" x1="743.42" y1="-453.55" x2="775.59" y2="-449.42" gradientTransform="matrix(0.47, 0, 0, -1.05, -343.81, -459.52)" gradientUnits="userSpaceOnUse"><stop offset="0" stop-color="#438ab9"/><stop offset="1" stop-color="#39769e"/></linearGradient><linearGradient id="Gradiente_sem_nome_8-2" x1="743.21" y1="-455.13" x2="775.38" y2="-451" gradientTransform="matrix(0.47, 0, 0, -1.05, -343.7, -461.39)" xlink:href="#Gradiente_sem_nome_8"/><linearGradient id="Gradiente_sem_nome_9-2" x1="15.41" y1="-137.81" x2="31.32" y2="-137.81" gradientTransform="matrix(1, 0, 0, -1, -12.94, -125.38)" xlink:href="#Gradiente_sem_nome_9"/><linearGradient id="Gradiente_sem_nome_10-2" x1="743.17" y1="-492.07" x2="775.35" y2="-487.94" gradientTransform="matrix(0.47, 0, 0, -1.05, -343.68, -505.03)" xlink:href="#Gradiente_sem_nome_10"/><linearGradient id="Gradiente_sem_nome_8-3" x1="743.56" y1="-493.84" x2="775.73" y2="-489.71" gradientTransform="matrix(0.47, 0, 0, -1.05, -343.88, -507.12)" xlink:href="#Gradiente_sem_nome_8"/><linearGradient id="Gradiente_sem_nome_9-3" x1="14.64" y1="-98.74" x2="30.55" y2="-98.74" gradientTransform="matrix(1, 0, 0, -1, -12.18, -91.55)" xlink:href="#Gradiente_sem_nome_9"/><linearGradient id="Gradiente_sem_nome_10-3" x1="743.52" y1="-530.78" x2="775.69" y2="-526.65" gradientTransform="matrix(0.47, 0, 0, -1.05, -343.86, -550.76)" xlink:href="#Gradiente_sem_nome_10"/><linearGradient id="Gradiente_sem_nome_11" x1="760.27" y1="-539.6" x2="789.65" y2="-541.51" gradientTransform="matrix(0.46, 0, 0, -1.03, -345.21, -551.7)" gradientUnits="userSpaceOnUse"><stop offset="0" stop-color="#5295c0"/><stop offset="1" stop-color="#5f9dc5"/></linearGradient></defs><g id="Camada_2" data-name="Camada 2"><g id="Camada_1-2" data-name="Camada 1"><g id="logo"><path class="cls-1" d="M20,21c0,1.73-4.48,3.13-10,3.13S0,22.75,0,21s4.48-3.13,10-3.13S20,19.29,20,21Z"/><path class="cls-2" d="M18.37,18.76c0,1.72-3.56,3.12-8,3.12s-7.95-1.4-7.95-3.12,3.56-3.13,8-3.13,8,1.4,8,3.13Z"/><path class="cls-3" d="M2.46,13.62v0Zm15.9,0s0,.07,0,.11v-.11Zm0,.11c0,1.73-3.57,3.13-8,3.13s-7.84-1.36-7.95-3v4.83c.11,1.69,3.63,3.05,8,3.05s7.85-1.36,8-3.05h0V13.73Z"/><path class="cls-4" d="M18.37,13.75c0,1.73-3.56,3.13-8,3.13s-8-1.4-8-3.13,3.56-3.13,8-3.13,8,1.4,8,3.13Z"/><path class="cls-5" d="M18.38,13.54c0,1.72-3.56,3.12-7.95,3.12s-7.95-1.4-7.95-3.12,3.56-3.13,8-3.13,8,1.4,8,3.13Z"/><path class="cls-6" d="M2.48,8.4v0Zm15.9,0v0Zm0,.11c0,1.73-3.56,3.13-7.95,3.13S2.59,10.28,2.48,8.59v4.83c.1,1.69,3.62,3,8,3s7.84-1.36,8-3h0V8.51Z"/><path class="cls-7" d="M18.39,8.53c0,1.73-3.57,3.13-8,3.13s-7.95-1.4-7.95-3.13S6,5.4,10.43,5.4s8,1.4,8,3.13Z"/><path class="cls-8" d="M18.36,8.29c0,1.73-3.56,3.13-7.95,3.13s-8-1.4-8-3.13,3.57-3.13,8-3.13,8,1.4,8,3.13Z"/><path class="cls-9" d="M2.46,3.15v0Zm15.89,0a.49.49,0,0,1,0,.12V3.15Zm0,.12c0,1.72-3.56,3.12-7.95,3.12S2.56,5,2.46,3.35V8a.25.25,0,0,0,0,.08.19.19,0,0,0,0,.08c.1,1.69,3.62,3.05,8,3.05s7.84-1.36,8-3.05h0V3.27Z"/><path class="cls-10" d="M18.36,3.29c0,1.72-3.56,3.12-7.95,3.12S2.46,5,2.46,3.29,6,.16,10.41.16s8,1.4,8,3.13Z"/><path class="cls-11" d="M18.26,3.07c0,1.7-3.49,3.07-7.81,3.07S2.64,4.77,2.64,3.07,6.14,0,10.45,0s7.81,1.38,7.81,3.07Z"/></g></g></g></svg>
