<svg xmlns="http://www.w3.org/2000/svg" viewBox="0 0 288.46 300"><defs><style>.cls-1{fill:#009688;}</style></defs><g id="Camada_2" data-name="Camada 2"><g id="Camada_1-2" data-name="Camada 1"><path class="cls-1" d="M89.72.22A98.85,98.85,0,0,0,.25,90.49a115.45,115.45,0,0,0,.5,20.56,98.79,98.79,0,0,0,66.39,80.87,98.46,98.46,0,0,0,86-11.44l2.48-1.66,2.22,2.29,2.25,2.32-1.94,1.94a7.85,7.85,0,0,0-1.92,2.41c0,.54,100.46,111.9,101.22,112.2.56.22,4.35-1.7,7.35-3.71,8-5.39,17.91-15.6,22.57-23.26.85-1.39,1.16-2.1,1-2.41s-6.4-7-14-15.05-30.94-32.67-51.84-54.72-38.17-40.14-38.38-40.14a17.72,17.72,0,0,0-3,2.6l-2.65,2.63L176.68,164a27.23,27.23,0,0,1-2.06-2.27c-.14-.26.09-.75.85-1.7a101.94,101.94,0,0,0,10.61-16.36,97.33,97.33,0,0,0,4.33-9.59A98.48,98.48,0,0,0,162,23.1C146,9.7,127.61,2.14,106.38.22A156.92,156.92,0,0,0,89.72.22Zm14.56,9.67a86.94,86.94,0,0,1,32.5,8.51,88.72,88.72,0,0,1,47.08,55.78,86.64,86.64,0,0,1,2.79,13.62,135.26,135.26,0,0,1,.14,20.3c-.68,4.75-.8,5.53-1.25,7.8a88.82,88.82,0,0,1-71.38,69.94c-6.48,1.11-7.57,1.21-15.7,1.21-7.94,0-9.19-.1-15.13-1.09a88.78,88.78,0,0,1,21-176.07Z"/><path class="cls-1" d="M91.61,12.65C80.12,13.55,72.2,15.3,64,18.73s-16.26,8.93-21.32,14.7c-2.34,2.67-2.6,3.07-.76,1.16a11.22,11.22,0,0,1,1.47-1.37c-.19.4-.07.38,1-.07l1.37-.59L47.17,32a7.3,7.3,0,0,1,1.06-.43c.07,0,1-.35,2-.76,3.5-1.34,4.47-1.6,6.46-1.67,1.51-.05,2,0,2.34.28s.44.31.56.21S71.73,41.44,86.29,56.05c17,17.11,26.68,26.64,27.09,26.74s.56.21.52.26a23,23,0,0,1-3.29-1c-3.1-1-4.47-1.37-2.81-.71.45.19,3.38,1.21,6.5,2.27,25.12,8.53,38,15.08,47.6,24.23a54.76,54.76,0,0,1,15,25.34l.81,2.71.49-1.15a101.32,101.32,0,0,0,5.2-17.71c1.14-6.24,1.3-8.2,1.3-16.07,0-6.57-.07-8.06-.52-11.32-2.88-20.38-11.27-37.4-25.43-51.58a83.53,83.53,0,0,0-23.21-16.73c-10.19-5.09-19.9-7.69-32.34-8.65A113.1,113.1,0,0,0,91.61,12.65ZM115,83.38c.1.11-.07.16-.33.09-.54-.14-.61-.31-.14-.31A.59.59,0,0,1,115,83.38Z"/><path class="cls-1" d="M104.61,80.33c.64.28,1,.28.59,0a1.63,1.63,0,0,0-.71-.22C104.25,80.11,104.3,80.19,104.61,80.33Z"/><path class="cls-1" d="M106,80.8c.63.28,1,.28.59,0a1.61,1.61,0,0,0-.71-.21C105.67,80.59,105.72,80.66,106,80.8Z"/><path class="cls-1" d="M20.84,123.25c0,.26.07.33.14.14a.49.49,0,0,0,0-.45C20.89,122.85,20.81,123,20.84,123.25Z"/><path class="cls-1" d="M21.07,123.89c0,.52,2.56,7,4,10a82.71,82.71,0,0,0,12.39,18.75c.87,1,.92,1,1.32.56.76-.82,6.45-7.06,7.42-8.13.83-.9.76-.87-.4.24-.76.71-1.3,1.13-1.23.94s-.12-.49-.52-.75a8.08,8.08,0,0,1-1.25-1,15.7,15.7,0,0,0-1.47-1.18c-.47-.35-1-.8-1.18-1a12.3,12.3,0,0,0-1.13-.87,11.19,11.19,0,0,1-1.14-.88c-.19-.16-.71-.61-1.18-1a11.57,11.57,0,0,1-1.18-.94c-.19-.17-.71-.59-1.19-.95a14.45,14.45,0,0,1-1.18-.94c-.19-.17-.71-.59-1.18-1a9.9,9.9,0,0,1-1-.76c-.07-.07-.59-.49-1.18-.94a50.17,50.17,0,0,1-4.8-4.14c-1.33-1.53-1.63-1.77-1.87-1.63s-.19.07-.09-.09,0-.29-.05-.33a6.21,6.21,0,0,1-.85-1.73C21.33,124.17,21.1,123.65,21.07,123.89Z"/><path class="cls-1" d="M44.69,142.3a9.73,9.73,0,0,0,1.11,1.14c.19,0,0-.22-1-1.18l-1.14-1.07Z"/><path class="cls-1" d="M44.38,150.6l-4.44,4.77,2.46,2.39a81.39,81.39,0,0,0,40.13,20.75,62.72,62.72,0,0,0,7.75,1.07c1-.05.85-.07-2.31-.47-1.14-.17-1.85-.36-1.68-.45s-.26-.57-1.89-1.33a5.19,5.19,0,0,1-1.09-.73,5.09,5.09,0,0,0-1.06-.78,21.49,21.49,0,0,1-2.77-2.08c-.19-.17-.71-.59-1.18-1a11.57,11.57,0,0,1-1.18-.94c-.19-.17-.71-.59-1.18-.95s-.93-.68-1-.75-.59-.5-1.18-1-1.11-.87-1.18-.94-.59-.5-1.18-.95-1.11-.87-1.18-.95-.6-.49-1.19-.94-1.11-.88-1.18-.95-.49-.4-1-.75-1-.78-1.18-.95-.81-.68-1.37-1.13-1.23-.95-1.42-1.11-1-.83-1.89-1.49-1.7-1.33-1.89-1.49-.83-.66-1.42-1.11-1.21-1-1.37-1.14-.71-.59-1.18-.94-.93-.69-1-.76-.59-.5-1.18-.94-1.11-.88-1.18-.95-.59-.5-1.18-1-1.11-.87-1.18-.94c-.62-.69-2.18-1.66-2.42-1.51s.17-.36.76-1l1-1.21.62.52.59.52-.57-.66-.59-.64S46.82,148,44.38,150.6Z"/><path class="cls-1" d="M50.72,147.69a1.72,1.72,0,0,0,.54.47c.07,0-.07-.21-.31-.47a1.72,1.72,0,0,0-.54-.47C50.34,147.22,50.48,147.43,50.72,147.69Z"/><path class="cls-1" d="M51.78,148.5a1.56,1.56,0,0,0,.42.4c.36.3.38.28.08-.1S51.78,148.31,51.78,148.5Z"/><path class="cls-1" d="M53,149.44a1.26,1.26,0,0,0,.43.4c.35.31.37.29.07-.09S53,149.25,53,149.44Z"/><path class="cls-1" d="M54.26,150.53a1.84,1.84,0,0,0,.54.47c.08,0-.07-.21-.3-.47a1.83,1.83,0,0,0-.55-.47C53.88,150.06,54,150.27,54.26,150.53Z"/><path class="cls-1" d="M55.09,151.1a1.56,1.56,0,0,0,.42.4c.36.3.38.28.07-.1S55.09,150.91,55.09,151.1Z"/><path class="cls-1" d="M56,151.8a1.36,1.36,0,0,0,.43.41c.35.3.38.28.07-.1S56,151.62,56,151.8Z"/><path class="cls-1" d="M58.63,153.7a1.51,1.51,0,0,0,.43.4c.35.3.38.28.07-.1S58.63,153.51,58.63,153.7Z"/><path class="cls-1" d="M91.91,179.77a4.78,4.78,0,0,0,1.07,0c.28-.05,0-.1-.55-.1S91.61,179.72,91.91,179.77Z"/></g></g></svg>