<?xml version="1.0" standalone="no"?>
<!DOCTYPE svg PUBLIC "-//W3C//DTD SVG 20010904//EN"
 "http://www.w3.org/TR/2001/REC-SVG-20010904/DTD/svg10.dtd">
<svg version="1.0" xmlns="http://www.w3.org/2000/svg"
 width="1231.000000pt" height="1280.000000pt" viewBox="0 0 1231.000000 1280.000000"
 preserveAspectRatio="xMidYMid meet">
<metadata>
Created by potrace 1.15, written by Peter Selinger 2001-2017
</metadata>
<g transform="translate(0.000000,1280.000000) scale(0.100000,-0.100000)"
fill="#009688" stroke="none">
<path d="M3895 12689 c-1285 -124 -2416 -804 -3117 -1875 -383 -586 -607
-1236 -668 -1944 -20 -238 -11 -621 21 -870 203 -1580 1301 -2917 2809 -3421
612 -204 1213 -263 1859 -183 628 78 1246 309 1780 667 l105 70 94 -97 95 -98
-82 -82 c-48 -48 -81 -90 -81 -102 0 -23 4250 -4734 4282 -4747 24 -9 184 72
311 157 339 228 758 660 955 984 36 59 49 89 44 102 -4 11 -271 297 -592 637
-322 340 -1309 1382 -2193 2315 -885 934 -1615 1698 -1624 1698 -9 0 -66 -50
-128 -110 l-112 -111 -79 81 c-43 45 -83 88 -87 96 -6 11 4 32 36 72 180 230
291 400 449 692 48 87 130 270 183 406 325 836 369 1780 123 2644 -226 796
-697 1524 -1327 2051 -676 567 -1453 887 -2351 968 -134 13 -575 12 -705 0z
m616 -409 c509 -38 938 -150 1375 -360 974 -467 1701 -1328 1992 -2360 58
-203 86 -342 118 -576 23 -163 26 -716 6 -859 -29 -201 -34 -234 -53 -330
-112 -560 -345 -1077 -689 -1530 -571 -753 -1414 -1270 -2331 -1429 -274 -47
-320 -51 -664 -51 -336 0 -389 4 -640 46 -1164 197 -2181 953 -2714 2017 -409
817 -508 1738 -280 2622 214 831 698 1552 1389 2071 706 531 1625 803 2491
739z"/>
<path d="M3975 12163 c-486 -38 -821 -112 -1168 -257 -352 -146 -688 -378
-902 -622 -99 -113 -110 -130 -32 -49 38 38 66 64 62 58 -8 -17 -3 -16 42 3
21 9 47 20 58 25 11 4 38 16 60 25 22 10 42 18 45 18 3 1 41 15 85 32 148 57
189 68 273 71 64 2 87 -1 99 -12 8 -8 19 -13 24 -9 5 3 513 -501 1129 -1119
721 -724 1129 -1127 1146 -1131 15 -4 24 -9 22 -11 -2 -3 -65 16 -139 40 -131
43 -189 58 -119 30 19 -8 143 -51 275 -96 1063 -361 1608 -638 2014 -1025 303
-289 511 -639 635 -1072 l34 -115 21 49 c73 164 179 526 220 749 48 264 55
347 55 680 0 278 -3 341 -22 479 -122 862 -477 1582 -1076 2182 -311 310 -590
511 -982 708 -431 215 -842 325 -1368 366 -118 9 -395 11 -491 3z m989 -2992
c4 -5 -3 -7 -14 -4 -23 6 -26 13 -6 13 8 0 17 -4 20 -9z"/>
<path d="M4525 9300 c27 -12 43 -12 25 0 -8 5 -22 9 -30 9 -10 0 -8 -3 5 -9z"/>
<path d="M4585 9280 c27 -12 43 -12 25 0 -8 5 -22 9 -30 9 -10 0 -8 -3 5 -9z"/>
<path d="M981 7484 c0 -11 3 -14 6 -6 3 7 2 16 -1 19 -3 4 -6 -2 -5 -13z"/>
<path d="M991 7457 c-2 -22 108 -297 169 -424 137 -285 334 -584 524 -793 37
-41 39 -42 56 -24 32 35 273 299 314 344 35 38 32 37 -17 -10 -32 -30 -55 -48
-52 -40 3 10 -5 21 -22 32 -16 9 -39 27 -53 40 -14 13 -41 35 -62 50 -20 15
-42 34 -50 41 -7 7 -29 24 -48 37 -19 13 -41 30 -48 37 -8 7 -30 26 -50 41
-21 15 -43 33 -50 40 -8 7 -30 25 -50 40 -21 15 -43 33 -50 40 -8 7 -30 25
-50 40 -21 15 -39 29 -42 32 -3 3 -25 21 -50 40 -87 68 -174 143 -203 175 -56
65 -69 75 -79 69 -6 -4 -8 -3 -4 4 3 5 2 12 -2 14 -5 1 -21 35 -36 73 -34 90
-44 112 -45 102z"/>
<path d="M1990 6678 c24 -27 45 -48 47 -48 8 0 0 9 -44 50 l-48 45 45 -47z"/>
<path d="M1977 6327 l-188 -202 104 -101 c453 -437 1054 -748 1698 -878 109
-22 286 -46 328 -45 40 2 36 3 -98 20 -48 7 -78 15 -71 19 13 8 -11 24 -80 56
-14 6 -34 21 -46 31 -11 11 -31 26 -45 33 -23 13 -90 62 -117 88 -8 7 -30 25
-50 40 -21 15 -43 33 -50 40 -8 7 -30 25 -50 40 -21 15 -39 29 -42 32 -3 3
-25 21 -50 40 -25 19 -47 37 -50 40 -3 3 -25 21 -50 40 -25 19 -47 37 -50 40
-3 3 -25 21 -50 40 -25 19 -47 37 -50 40 -3 3 -21 17 -42 32 -20 15 -42 33
-50 40 -7 7 -34 29 -58 48 -25 19 -52 40 -60 47 -8 7 -44 35 -80 63 -36 28
-72 56 -80 63 -8 7 -35 28 -60 47 -24 19 -51 41 -58 48 -8 7 -30 25 -50 40
-21 15 -39 29 -42 32 -3 3 -25 21 -50 40 -25 19 -47 37 -50 40 -3 3 -25 21
-50 40 -25 19 -47 37 -50 40 -26 29 -92 70 -102 64 -7 -5 7 15 32 44 l44 51
26 -22 25 -22 -24 28 c-14 15 -25 27 -25 27 -1 0 -86 -91 -189 -203z"/>
<path d="M2245 6450 c10 -11 20 -20 23 -20 3 0 -3 9 -13 20 -10 11 -20 20 -23
20 -3 0 3 -9 13 -20z"/>
<path d="M2290 6416 c0 -2 8 -10 18 -17 15 -13 16 -12 3 4 -13 16 -21 21 -21
13z"/>
<path d="M2340 6376 c0 -2 8 -10 18 -17 15 -13 16 -12 3 4 -13 16 -21 21 -21
13z"/>
<path d="M2395 6330 c10 -11 20 -20 23 -20 3 0 -3 9 -13 20 -10 11 -20 20 -23
20 -3 0 3 -9 13 -20z"/>
<path d="M2430 6306 c0 -2 8 -10 18 -17 15 -13 16 -12 3 4 -13 16 -21 21 -21
13z"/>
<path d="M2470 6276 c0 -2 8 -10 18 -17 15 -13 16 -12 3 4 -13 16 -21 21 -21
13z"/>
<path d="M2580 6196 c0 -2 8 -10 18 -17 15 -13 16 -12 3 4 -13 16 -21 21 -21
13z"/>
<path d="M3988 5093 c12 -2 32 -2 45 0 12 2 2 4 -23 4 -25 0 -35 -2 -22 -4z"/>
</g>
</svg>
